<svg width="159" height="145" viewBox="0 0 159 145" fill="none" xmlns="http://www.w3.org/2000/svg">
<path fill-rule="evenodd" clip-rule="evenodd" d="M80.7222 52.8452C80.6514 49.2809 81.8649 45.8343 84.7928 42.7791C93.8503 33.3285 104.924 33.3578 115.587 38.1291C131.158 45.0965 145.824 62.3174 151.555 73.8737C151.827 74.4207 151.602 75.0834 151.056 75.353C150.509 75.6251 149.845 75.4024 149.573 74.8553C144.012 63.6386 129.795 46.909 114.683 40.146C104.892 35.7652 94.7072 35.6289 86.3892 44.3103C83.9117 46.8922 82.8974 49.8043 82.9495 52.8181C84.9196 52.8143 86.8638 52.8663 88.7784 52.9752C94.0634 53.2773 107.454 56.5834 115.642 62.2051C121.514 66.2392 124.709 71.4562 121.364 77.489C119.505 80.8418 116.107 82.2002 111.954 81.9523C106.244 81.6149 99.0254 78.1569 92.9825 73.1631C87.9506 69.0063 83.7388 63.7983 81.8361 58.527C81.4203 57.3676 81.1093 56.206 80.9243 55.0503C53.6027 55.6207 22.4749 66.8852 2.54781 84.7123C2.09227 85.1168 1.39424 85.0808 0.98727 84.6239C0.579013 84.1696 0.61878 83.4703 1.07185 83.0645C21.3254 64.9481 52.9293 53.4755 80.7222 52.8452ZM83.1716 55.0273C85.023 55.0279 86.8512 55.0794 88.6523 55.1827C93.7167 55.4738 106.544 58.6412 114.389 64.0278C119.203 67.3329 122.172 71.4734 119.431 76.4179C117.99 79.0138 115.301 79.9356 112.085 79.7474C108.548 79.5367 104.405 78.0051 100.366 75.6443C94.2351 72.0602 88.35 66.5574 85.2168 60.6777C84.2232 58.8155 83.511 56.9141 83.1716 55.0273Z" fill="black"/>
<path fill-rule="evenodd" clip-rule="evenodd" d="M43.7675 83.8709C31.2079 79.8493 15.0082 81.0026 2.28014 84.706C1.69481 84.8764 1.08131 84.5386 0.91092 83.9532C0.740535 83.3679 1.07594 82.7532 1.66127 82.5828C14.7867 78.7621 31.4927 77.6206 44.4409 81.7656C45.0206 81.9507 45.3413 82.5734 45.1549 83.1556C44.9698 83.7353 44.3472 84.056 43.7675 83.8709Z" fill="black"/>
<path fill-rule="evenodd" clip-rule="evenodd" d="M1.52005 82.3488C10.7492 76.4017 18.1641 63.7735 20.6347 53.0421C20.7713 52.4467 21.3649 52.073 21.9591 52.2122C22.5545 52.3489 22.9256 52.9411 22.7889 53.5365C20.2005 64.7789 12.3862 77.9758 2.7171 84.2067C2.20532 84.5379 1.51891 84.3886 1.18767 83.8769C0.857711 83.3626 1.00581 82.6788 1.52005 82.3488Z" fill="black"/>
</svg>
